<svg xmlns="http://www.w3.org/2000/svg" viewBox="0 0 32 32" width="32" height="32">
  <defs>
    <style>
      .aws-orange { fill: #FF9900; }
      .aws-dark { fill: #232F3E; }
    </style>
  </defs>
  <rect width="32" height="32" fill="#232F3E"/>
  <g transform="translate(4,8)">
    <!-- AWS smile -->
    <path class="aws-orange" d="M18.5 12.5c-5.5 4-13.5 4-18.5 0-.3-.2-.1-.6.3-.4 4.5 2.6 10.1 2.6 14.6 0 .4-.2.6.2.3.4z"/>
    <path class="aws-orange" d="M19.8 11c-.4-.5-2.6-.2-3.6-.1-.3 0-.3-.2-.1-.4 1.8-1.3 4.7-.9 5-.4.3.5-.1 3.4-1.8 4.8-.2.2-.5-.1-.4-.3.4-1 1.3-3.1.9-3.6z"/>
    <!-- AWS letters -->
    <path class="aws-orange" d="M2.5 2h1.2l.8 2.4.8-2.4h1.2l-1.4 3.8h-1.2L2.5 2zm4.8 0h1.1l1.2 3.8h-1.1l-.2-.7h-1.2l-.2.7h-1.1L7.3 2zm.6 1l-.4 1.4h.8L8.5 3zm3.1-1h1.8c.8 0 1.3.4 1.3 1.1 0 .5-.3.8-.7.9.5.1.8.5.8 1 0 .8-.6 1.2-1.4 1.2h-1.8V2zm1.1.8v.8h.6c.3 0 .5-.1.5-.4s-.2-.4-.5-.4h-.6zm0 1.4v.9h.7c.3 0 .5-.2.5-.5s-.2-.4-.5-.4h-.7z"/>
  </g>
</svg>